<?xml version="1.0" ?><!DOCTYPE svg  PUBLIC '-//W3C//DTD SVG 1.1//EN'  'http://www.w3.org/Graphics/SVG/1.1/DTD/svg11.dtd'><svg height="100%" style="fill-rule:evenodd;clip-rule:evenodd;stroke-linejoin:round;stroke-miterlimit:2;" version="1.1" viewBox="0 0 100 100" width="100%" xml:space="preserve" xmlns="http://www.w3.org/2000/svg" xmlns:serif="http://www.serif.com/" xmlns:xlink="http://www.w3.org/1999/xlink"><g id="Icon"><path d="M61.654,19.75c-0.08,0.16 -0.159,0.321 -0.237,0.482c-0.041,-0.342 -0.085,-0.683 -0.13,-1.018c-0.141,-1.069 -0.379,-2.14 -0.644,-3.184c-0.289,-1.137 -0.587,-2.286 -1.223,-3.289c-0.428,-0.674 -1.018,-0.97 -1.535,-0.986c-0.573,-0.018 -1.211,0.257 -1.611,1.126c-0.116,0.252 -0.215,0.534 -0.291,0.8c-0.155,0.542 -0.145,0.539 -0.151,1.182c-0.027,2.652 0.799,5.385 1.822,7.803c0.13,0.307 0.547,1.509 1.014,2.206c0.138,0.205 0.29,0.374 0.448,0.507c-0.495,1.185 -0.977,2.376 -1.458,3.566c-0.205,-1.534 -0.483,-3.055 -0.81,-4.6c-0.272,-1.281 -0.505,-2.926 -1.379,-3.968c-0.695,-0.829 -1.433,-1.015 -2.028,-0.923c-0.842,0.131 -1.643,0.963 -1.833,2.247c-0.293,1.989 0.104,4.121 0.786,5.99c0.801,2.198 2.437,4.079 3.191,6.271c-1.055,2.446 -2.191,4.855 -3.528,7.171c0.089,-2.474 -0.042,-4.984 -0.24,-7.435c-0.177,-2.174 -0.73,-4.313 -1.16,-6.445c-0.288,-1.426 -0.57,-3.26 -1.144,-4.885c-0.425,-1.207 -1.014,-2.301 -1.835,-3.096c-0.497,-0.482 -1.016,-0.665 -1.516,-0.673c-0.661,-0.01 -1.341,0.32 -1.934,0.926c-1.102,1.126 -1.925,3.246 -1.99,4.102c-0.404,5.243 1.52,11.453 3.989,16.017c0.788,1.457 1.657,2.876 2.712,4.156c0.132,0.161 0.459,0.639 0.784,0.975c-1.351,1.96 -2.776,3.972 -4.243,5.963c0.578,-4.254 0.13,-8.467 -1.263,-12.644c-0.253,-0.761 -0.528,-2.135 -1.005,-3.252c-0.42,-0.985 -1.019,-1.77 -1.757,-2.108c-0.601,-0.275 -1.11,-0.267 -1.535,-0.125c-0.423,0.141 -0.784,0.433 -1.063,0.846c-0.529,0.786 -0.733,2.132 -0.796,2.839c-0.298,3.323 -0.08,6.665 0.777,9.9c0.54,2.043 1.324,3.991 2.224,5.9c0.407,0.862 1.088,1.717 1.401,2.618c-1.102,1.406 -2.216,2.774 -3.331,4.077c-0.183,0.215 -0.367,0.428 -0.55,0.641c0.04,-1.14 0.007,-2.283 -0.055,-3.424c-0.079,-1.459 -0.202,-2.927 -0.442,-4.367c-0.308,-1.846 -0.853,-3.516 -1.849,-5.101c-0.67,-1.065 -1.588,-1.449 -2.291,-1.276c-0.485,0.12 -1.035,0.507 -1.392,1.44c-0.125,0.326 -0.224,0.667 -0.315,1.003c-0.125,0.465 -0.218,0.935 -0.285,1.411c-0.118,0.839 -0.127,1.708 -0.088,2.553c0.174,3.691 1.004,8.654 3.15,11.908c-1.785,2.132 -3.436,4.277 -4.806,6.634c0.032,-0.639 0.081,-1.277 0.054,-1.878c-0.142,-3.18 -1.008,-7.149 -3.12,-9.667c-0.449,-0.535 -0.887,-0.707 -1.228,-0.744c-0.495,-0.053 -0.944,0.135 -1.299,0.566c-0.463,0.56 -0.725,1.813 -0.775,2.387c-0.2,2.291 -0.025,4.664 0.717,6.85c0.575,1.695 1.422,3.26 2.379,4.766c0.187,0.295 0.53,0.655 0.854,1.021c0.167,0.188 0.357,0.356 0.401,0.531c0.017,0.069 0.041,0.135 0.071,0.196c-0.422,1.092 -0.783,2.238 -1.072,3.454c-1.163,4.892 -0.205,9.623 0.511,14.522c0.08,0.546 0.588,0.925 1.134,0.845c0.547,-0.08 0.925,-0.588 0.845,-1.134c-0.679,-4.646 -1.647,-9.131 -0.544,-13.77c0.22,-0.928 0.486,-1.814 0.791,-2.663c0.944,0.213 2.011,0.216 2.902,0.242c2.559,0.074 5.215,0.134 7.738,-0.358c0.645,-0.125 1.497,-0.29 2.238,-0.59c0.614,-0.249 1.155,-0.593 1.529,-1.039c0.564,-0.671 0.488,-1.329 0.1,-1.911c-0.323,-0.485 -1.004,-0.902 -1.43,-1.074c-1.518,-0.614 -3.152,-0.472 -4.73,-0.244c-1.069,0.155 -2.143,0.355 -3.199,0.578c-1.322,0.278 -2.527,0.739 -3.744,1.198c1.375,-2.639 3.135,-4.969 5.064,-7.273c2.938,2.518 7.715,3.358 11.371,3.302c0.654,-0.009 1.781,0.053 2.75,-0.095c0.885,-0.135 1.644,-0.467 2.079,-0.989c0.43,-0.516 0.487,-1.111 0.26,-1.724c-0.285,-0.77 -1.224,-1.606 -1.636,-1.937c-2.004,-1.612 -4.469,-2.124 -6.985,-2.19c-1.524,-0.04 -3.087,-0.098 -4.607,0.049c-0.052,0.006 -0.105,0.012 -0.158,0.02c0.392,-0.451 0.787,-0.907 1.182,-1.369c1.099,-1.284 2.197,-2.63 3.283,-4.013c1.226,1.079 3.09,1.705 4.576,2.2c3.389,1.13 7.407,2.369 11.015,1.747c0.643,-0.111 1.318,-0.304 1.914,-0.571c1.369,-0.613 2.131,-1.656 2.149,-2.682c0.012,-0.725 -0.312,-1.521 -1.214,-2.232c-1.589,-1.252 -3.615,-1.875 -5.586,-2.173c-1.384,-0.209 -2.784,-0.243 -4.181,-0.226c-1.561,0.019 -3.153,0.01 -4.702,0.212c-0.433,0.057 -0.877,0.155 -1.324,0.259c1.712,-2.302 3.371,-4.642 4.931,-6.909c0.012,-0.003 0.023,-0.006 0.035,-0.009c5.48,2.662 12.454,2.703 18.222,1.014c0.983,-0.288 1.974,-0.601 2.9,-1.042c0.933,-0.444 2.185,-1.25 2.913,-2.186c0.471,-0.604 0.735,-1.268 0.721,-1.933c-0.014,-0.688 -0.304,-1.415 -1.107,-2.097c-0.424,-0.361 -0.936,-0.576 -1.466,-0.73c-2.186,-0.636 -4.797,0.016 -6.956,0.431c-1.886,0.362 -3.765,0.708 -5.635,1.152c-1.913,0.455 -3.865,0.934 -5.706,1.635c-0.68,0.259 -1.375,0.601 -2.079,0.929c1.592,-2.661 2.906,-5.45 4.121,-8.286c0.134,0.015 0.274,0.023 0.42,0.023c0.859,0.004 1.959,-0.24 2.505,-0.291c3.228,-0.303 6.376,-1.084 9.206,-2.684c0.478,-0.27 1.187,-0.598 1.751,-1.017c0.526,-0.391 0.932,-0.866 1.114,-1.396c0.277,-0.802 0,-1.429 -0.531,-1.888c-0.342,-0.295 -0.823,-0.502 -1.231,-0.606c-1.618,-0.414 -3.46,-0.007 -4.978,0.579c-1.363,0.527 -2.684,1.122 -3.977,1.803c-0.865,0.455 -1.741,0.904 -2.589,1.397c0.561,-1.382 1.12,-2.765 1.696,-4.141c3.388,0.186 7.166,-2.134 9.701,-3.974c0.501,-0.364 1.907,-1.44 2.452,-2.456c0.395,-0.737 0.418,-1.466 0.022,-2.085c-0.323,-0.505 -0.885,-0.791 -1.603,-0.817c-0.944,-0.035 -2.251,0.448 -2.749,0.635c-1.989,0.746 -3.739,2.024 -5.413,3.329l0.035,-0.071c0.016,-0.033 0.032,-0.065 0.048,-0.097l0.039,-0.08c0.187,-0.071 0.354,-0.2 0.474,-0.379c0.934,-1.4 1.985,-2.723 2.864,-4.167c0.61,-1.003 1.188,-2.036 1.738,-3.074c0.362,-0.68 0.849,-1.604 1.114,-2.523c0.215,-0.746 0.281,-1.493 0.117,-2.15c-0.145,-0.579 -0.439,-0.922 -0.765,-1.128c-0.345,-0.218 -0.763,-0.299 -1.231,-0.221c-0.501,0.083 -1.103,0.387 -1.652,0.783c-0.72,0.519 -1.355,1.174 -1.537,1.414c-1.66,2.18 -2.536,4.756 -2.826,7.462c-0.094,0.883 -0.254,2.063 -0.036,2.991Zm-19.186,52.989c-0.081,-0.053 -0.162,-0.101 -0.213,-0.122c-1.185,-0.479 -2.463,-0.297 -3.694,-0.118c-1.026,0.148 -2.058,0.34 -3.072,0.554c-0.815,0.172 -1.582,0.418 -2.337,0.69c2.332,0.067 4.741,0.118 7.034,-0.329c0.457,-0.089 1.037,-0.194 1.582,-0.376c0.248,-0.082 0.494,-0.175 0.7,-0.299Zm-16.496,-12.32c-0.066,0.247 -0.127,0.501 -0.138,0.63c-0.177,2.018 -0.035,4.108 0.618,6.034c0.441,1.297 1.061,2.509 1.765,3.677c0.02,-0.792 0.081,-1.591 0.048,-2.338c-0.116,-2.59 -0.718,-5.798 -2.293,-8.003Zm12.662,3.785c2.585,1.667 6.247,2.164 9.103,2.121c0.586,-0.009 1.596,0.06 2.467,-0.071c-3.044,-0.811 -6.16,-1.564 -9.284,-1.846c-0.769,-0.069 -1.525,-0.172 -2.286,-0.204Zm11.366,0.962c-0.012,-0.011 -0.023,-0.02 -0.033,-0.028c-1.655,-1.331 -3.707,-1.695 -5.785,-1.75c-1.186,-0.031 -2.397,-0.078 -3.589,-0.016c0.139,0.014 0.278,0.028 0.417,0.04c3.023,0.273 6.039,0.977 8.99,1.754Zm-15.246,-17.211c0.039,0.896 0.065,1.797 0.188,2.673c0.45,3.221 1.308,6.403 1.592,9.647c0.106,-1.383 0.071,-2.773 -0.004,-4.161c-0.075,-1.385 -0.19,-2.779 -0.418,-4.147c-0.24,-1.441 -0.641,-2.761 -1.358,-4.012Zm-0.885,2.074c-0.035,0.515 -0.03,1.036 -0.006,1.546c0.123,2.607 0.563,5.926 1.666,8.666c-0.288,-3.186 -1.135,-6.311 -1.577,-9.474c-0.035,-0.244 -0.061,-0.49 -0.083,-0.738Zm14.204,5.995c0.371,0.127 0.733,0.243 1.071,0.355c3.093,1.031 6.748,2.241 10.042,1.673c0.45,-0.078 0.921,-0.206 1.345,-0.386c-1.109,-0.197 -2.192,-0.462 -3.322,-0.664c-1.831,-0.325 -3.716,-0.478 -5.564,-0.684c-1.173,-0.131 -2.383,-0.165 -3.572,-0.294Zm13.504,0.796c0.007,-0.028 0.012,-0.056 0.012,-0.085c0.004,-0.22 -0.177,-0.41 -0.451,-0.626c-1.319,-1.039 -3.013,-1.519 -4.648,-1.766c-1.277,-0.193 -2.569,-0.22 -3.858,-0.204c-1.483,0.017 -2.996,0.003 -4.468,0.195c-0.611,0.08 -1.242,0.232 -1.876,0.37c1.761,0.479 3.661,0.418 5.468,0.62c1.869,0.209 3.776,0.365 5.628,0.694c1.424,0.253 2.771,0.612 4.193,0.802Zm-20.335,-21.49c0.045,0.096 0.088,0.196 0.131,0.297c0.453,1.063 0.705,2.374 0.947,3.099c1.386,4.159 1.769,8.354 1.047,12.594c-0.238,-2.354 0.022,-4.828 -0.28,-7.152c-0.388,-2.992 -1.415,-5.872 -1.845,-8.838Zm-1.01,-0.018c-0.106,0.431 -0.153,0.871 -0.179,1.161c-0.277,3.091 -0.079,6.2 0.718,9.21c0.39,1.471 0.915,2.89 1.52,4.281c-0.06,-1.895 0.043,-3.827 -0.195,-5.667c-0.395,-3.042 -1.441,-5.969 -1.864,-8.985Zm34.039,6.489c-2.881,0.344 -5.682,1.046 -8.506,1.701c-1.554,0.361 -3.147,0.534 -4.706,0.869c-1.57,0.337 -3.247,0.763 -4.908,0.85c4.257,1.039 8.984,0.758 13.057,-0.435c0.881,-0.258 1.772,-0.532 2.602,-0.928c0.697,-0.332 1.651,-0.909 2.195,-1.608c0.114,-0.147 0.215,-0.295 0.266,-0.449Zm-0.528,-0.942c-0.175,-0.103 -0.374,-0.164 -0.571,-0.221c-1.894,-0.551 -4.149,0.115 -6.019,0.475c-1.858,0.357 -3.708,0.696 -5.55,1.134c-1.829,0.435 -3.697,0.887 -5.457,1.558c-0.341,0.13 -0.685,0.278 -1.033,0.433c1.92,0.109 3.905,-0.452 5.736,-0.845c1.554,-0.333 3.141,-0.506 4.69,-0.865c2.726,-0.632 5.43,-1.305 8.204,-1.669Zm-23.692,0.4c0.102,-2.46 -0.03,-4.96 -0.228,-7.399c-0.17,-2.096 -0.711,-4.156 -1.127,-6.211c-0.228,-1.132 -0.447,-2.535 -0.831,-3.867c-0.34,-1.184 -0.799,-2.318 -1.579,-3.074c-0.056,-0.054 -0.099,-0.103 -0.155,-0.109c-0.127,-0.012 -0.226,0.1 -0.342,0.201c-0.174,0.15 -0.337,0.342 -0.489,0.555c0.137,3.825 1.661,7.398 2.7,11.035c0.833,2.915 1.192,5.962 2.051,8.869Zm-5.614,-18.253c-0.117,0.312 -0.191,0.585 -0.205,0.774c-0.376,4.884 1.454,10.66 3.754,14.912c0.215,0.399 0.437,0.794 0.668,1.184c-0.571,-2.395 -0.939,-4.846 -1.615,-7.212c-0.914,-3.197 -2.177,-6.35 -2.602,-9.658Zm26.03,5.751c-0.086,-0.04 -0.186,-0.083 -0.252,-0.1c-1.226,-0.313 -2.612,0.063 -3.762,0.508c-1.291,0.498 -2.542,1.061 -3.766,1.706c-0.913,0.481 -1.84,0.951 -2.728,1.481c0.095,-0.014 0.18,-0.025 0.255,-0.033c2.947,-0.276 5.825,-0.973 8.409,-2.433c0.36,-0.204 0.869,-0.438 1.322,-0.73c0.194,-0.125 0.393,-0.246 0.522,-0.399Zm-16.699,-7.259c-0.06,0.117 -0.156,0.325 -0.181,0.495c-0.246,1.665 0.115,3.447 0.686,5.013c0.375,1.03 0.932,1.992 1.496,2.948c-0.203,-1.739 -0.509,-3.45 -0.878,-5.194c-0.209,-0.989 -0.28,-2.294 -0.954,-3.097c-0.051,-0.061 -0.117,-0.121 -0.169,-0.165Zm17.438,-2.455c-0.121,0.004 -0.258,0.015 -0.364,0.035c-0.585,0.115 -1.178,0.352 -1.455,0.456c-2.16,0.81 -3.996,2.333 -5.79,3.744c-0.245,0.193 -0.704,0.474 -1.129,0.787c-0.091,0.067 -0.201,0.162 -0.298,0.251c2.605,-0.341 5.3,-2.158 7.218,-3.55c0.332,-0.241 1.197,-0.863 1.7,-1.532c0.04,-0.053 0.081,-0.123 0.118,-0.191Zm-13.278,-4.886l-0.022,0.073c-0.085,0.299 -0.071,0.298 -0.074,0.652c-0.024,2.383 0.745,4.832 1.664,7.005c0.015,0.035 0.041,0.093 0.074,0.167c-0.032,-0.866 -0.154,-1.737 -0.265,-2.579c-0.131,-0.991 -0.355,-1.984 -0.601,-2.952c-0.204,-0.806 -0.392,-1.627 -0.776,-2.366Zm9.868,-4.988c-0.094,0.041 -0.198,0.09 -0.278,0.138c-0.628,0.385 -1.255,0.996 -1.411,1.201c-1.436,1.887 -2.177,4.123 -2.428,6.464c-0.008,0.072 -0.017,0.146 -0.027,0.223c0.476,-0.666 0.944,-1.337 1.371,-2.039c0.591,-0.969 1.148,-1.969 1.681,-2.971c0.26,-0.49 0.602,-1.123 0.84,-1.78c0.153,-0.419 0.278,-0.847 0.252,-1.236Z"/></g></svg>